<svg width="63" height="63" viewBox="0 0 63 63" fill="none" xmlns="http://www.w3.org/2000/svg">
<path d="M38.0828 31.5V37.5827C38.0828 37.656 38.0828 37.7293 38.0785 37.8026C37.9621 41.1824 35.1859 43.8853 31.7802 43.8853C28.3746 43.8853 25.6027 41.1824 25.4863 37.8026H25.4819V25.2017H31.7802C35.2591 25.2017 38.0828 28.0211 38.0828 31.5Z" fill="#F8B501"/>
<path d="M38.0828 56.7017V63H31.7802C28.3013 63 25.4819 60.1806 25.4819 56.7017C25.4819 53.2228 28.3013 50.4034 31.7802 50.4034C35.2591 50.4034 38.0828 53.2228 38.0828 56.7017Z" fill="#F8B501"/>
<path d="M63 25.2017V56.7017C63 60.1806 60.1806 63 56.7017 63H50.3991V31.5C50.3991 28.0211 53.2228 25.2017 56.7017 25.2017H63Z" fill="#F8B501"/>
<path d="M63 0V6.30259C63 9.78151 60.1806 12.6009 56.7017 12.6009H19.1837C15.7004 12.6009 12.8811 15.4245 12.8811 18.9034V56.7017C12.8811 60.1806 10.0617 63 6.5828 63H0V6.30259C0 2.82366 2.81935 0 6.29828 0H63Z" fill="#F8B501"/>
</svg>
